<?xml version="1.0" encoding="UTF-8"?>
<svg id="Layer_1" data-name="Layer 1" xmlns="http://www.w3.org/2000/svg" viewBox="0 0 100 100">
  <defs>
    <style>
      .cls-1 {
        fill: #fc0000;
      }
    </style>
  </defs>
  <path class="cls-1" d="M51.63,19.61c.31.89.59,1.68.85,2.39.48,1.3.87,2.29,1.21,3.04,1.85,4.11,4.71,4.97,6.78,4.97.92,0,1.84-.19,2.68-.55.66-.28,1.15-.49,7.02-5.09l-2.56,7.32c-.76,2.18-.36,4.6,1.07,6.41,1.29,1.64,3.25,2.58,5.31,2.58.22,0,.44-.01.67-.03l3.59-.36-2.01,1.63c-1.55,1.26-2.47,3.15-2.5,5.15-.03,2,.83,3.91,2.34,5.22l5.43,4.68-3.53,1.26c-1.8.64-3.24,2.01-3.97,3.77-.73,1.76-.69,3.75.13,5.48l4.45,9.45-8.75-6c-1.14-.78-2.48-1.19-3.82-1.19-.9,0-1.8.18-2.65.54-2.13.91-3.64,2.84-4.02,5.12l-.63,3.83-1.87-3.41c-1-1.83-2.79-3.09-4.85-3.43-.36-.06-.72-.09-1.08-.09-1.69,0-3.34.64-4.6,1.81l-3.61,3.36-.13-2.13c-.14-2.33-1.47-4.42-3.52-5.54-1.01-.55-2.12-.82-3.22-.82s-2.3.29-3.34.88l-6.94,3.94,5.22-7.8c1.13-1.69,1.44-3.8.84-5.75-.6-1.94-2.04-3.52-3.93-4.28l-6.02-2.43,4.19-2.33c1.91-1.06,3.19-2.98,3.43-5.15.24-2.17-.58-4.33-2.2-5.79l-2.62-2.35,2.9.7c.53.13,1.06.19,1.59.19,1.62,0,3.2-.58,4.45-1.67,1.65-1.44,2.5-3.6,2.28-5.78l-.63-6.14,3.81,2.89c1.19.9,2.62,1.37,4.08,1.37.58,0,1.16-.07,1.74-.23,2.01-.53,3.66-1.97,4.48-3.88l2.47-5.8M52.52.31l-9.57,22.45-16.2-12.27,2.21,21.6L0,25.09l22.58,20.25-16.56,9.2,19.14,7.73-21.1,31.53,31.78-18.04.98,16.44,14.11-13.13,11.29,20.61,3.8-23.19,29.33,20.12-15.09-32.02,14.48-5.15-14.23-12.27,19.51-15.83-26.01,2.58,10.31-29.45s-22.94,18.4-23.8,18.77c0,0-.01,0-.02,0-.95,0-7.95-22.95-7.95-22.95h0Z"/>
</svg>