<?xml version="1.0" encoding="UTF-8"?>
<svg id="Layer_1" data-name="Layer 1" xmlns="http://www.w3.org/2000/svg" viewBox="0 0 100 100">
  <defs>
    <style>
      .cls-1 {
        fill: #fc0000;
      }
    </style>
  </defs>
  <path class="cls-1" d="M98.1,79.86c2.53,2.53,2.53,6.64,0,9.16l-9.08,9.08c-2.52,2.53-6.63,2.53-9.16,0l-27.27-27.27c-1.43-1.43-3.75-1.43-5.19,0l-27.27,27.27c-2.53,2.53-6.64,2.53-9.16,0l-9.08-9.08c-2.53-2.52-2.53-6.63,0-9.16l27.27-27.27c1.43-1.43,1.43-3.75,0-5.19L1.9,20.14c-2.53-2.53-2.53-6.64,0-9.16L10.98,1.9c2.52-2.53,6.63-2.53,9.16,0l27.27,27.27c1.43,1.43,3.75,1.43,5.19,0L79.86,1.9c2.53-2.53,6.64-2.53,9.16,0l9.08,9.08c2.53,2.52,2.53,6.63,0,9.16l-27.27,27.27c-1.43,1.43-1.43,3.75,0,5.19l27.27,27.27Z"/>
</svg>