<?xml version="1.0" encoding="UTF-8"?>
<svg id="Layer_1" data-name="Layer 1" xmlns="http://www.w3.org/2000/svg" viewBox="0 0 100 100">
  <defs>
    <style>
      .cls-1 {
        fill: #fc0000;
      }
    </style>
  </defs>
  <path class="cls-1" d="M62.3,12.14l2.39,11.88.91,4.51,4.57-.53,12.04-1.4-5.04,11.02-1.91,4.18,4,2.26,10.56,5.95-10.56,5.95-4,2.26,1.91,4.18,5.04,11.02-12.04-1.4-4.57-.53-.91,4.51-2.39,11.88-8.91-8.21-3.39-3.12-3.39,3.12-8.91,8.21-2.39-11.88-.91-4.51-4.57.53-12.04,1.4,5.04-11.02,1.91-4.18-4-2.26-10.56-5.95,10.56-5.95,4-2.26-1.91-4.18-5.04-11.02,12.04,1.4,4.57.53.91-4.51,2.39-11.88,8.91,8.21,3.39,3.12,3.39-3.12,8.91-8.21M34.55,2.44l-4.14,20.59-20.86-2.42,8.74,19.09L0,50l18.29,10.31-8.74,19.09,20.86-2.42,4.14,20.59,15.45-14.23,15.45,14.23,4.14-20.59,20.86,2.42-8.74-19.09,18.29-10.31-18.29-10.31,8.74-19.09-20.86,2.42-4.14-20.59-15.45,14.23-15.45-14.23h0Z"/>
</svg>