<?xml version="1.0" encoding="UTF-8"?>
<svg id="Layer_1" data-name="Layer 1" xmlns="http://www.w3.org/2000/svg" viewBox="0 0 100 100">
  <defs>
    <style>
      .cls-1 {
        fill: #fee100;
      }

      .cls-2 {
        fill: #fff200;
      }
    </style>
  </defs>
  <g>
    <path class="cls-2" d="M7.67,87.42c-1.54,0-2.9-.81-3.64-2.16-.74-1.35-.69-2.93.14-4.23L46.5,14.51c.78-1.22,2.06-1.92,3.5-1.92s2.73.7,3.5,1.92l42.33,66.52c.83,1.3.88,2.88.14,4.23-.74,1.35-2.1,2.16-3.64,2.16H7.67Z"/>
    <path class="cls-1" d="M50,16.08c.36,0,.49.21.55.3l42.33,66.52c.07.11.21.33.02.67-.19.34-.45.34-.57.34H7.67c-.13,0-.39,0-.57-.34-.19-.34-.05-.56.02-.67L49.45,16.39c.06-.09.19-.3.55-.3M50,9.08c-2.48,0-4.95,1.18-6.46,3.55L1.21,79.15c-3.24,5.1.42,11.76,6.46,11.76h84.67c6.04,0,9.7-6.67,6.46-11.76L56.46,12.63c-1.5-2.36-3.98-3.55-6.46-3.55h0Z"/>
  </g>
  <path d="M45.88,73c0-1.47.39-2.58,1.18-3.34.79-.75,1.94-1.13,3.44-1.13s2.58.39,3.38,1.16c.8.77,1.2,1.88,1.2,3.31s-.4,2.48-1.21,3.27c-.81.8-1.93,1.2-3.36,1.2s-2.61-.39-3.42-1.17c-.81-.78-1.21-1.88-1.21-3.3ZM53.74,64.01h-6.41l-1.34-25.68h9.09l-1.34,25.68Z"/>
</svg>