<?xml version="1.0" encoding="UTF-8"?><svg id="Layer_1" xmlns="http://www.w3.org/2000/svg" width="100" height="100" viewBox="0 0 100 100"><path d="M46.84,2.77c.23-1.75,1.84-2.97,3.58-2.74,1.75.23,2.97,1.83,2.74,3.58-.23,1.74-1.84,2.97-3.58,2.74-1.75-.23-2.97-1.84-2.74-3.58ZM59.94,7.35c1.75.23,3.35-1,3.58-2.74.23-1.75-.99-3.35-2.74-3.58-1.74-.23-3.35.99-3.58,2.74-.23,1.74,1,3.35,2.74,3.58ZM71.16,4.67c-2.12-.98-4.54.56-4.59,2.89h0c-.03,1.28.69,2.45,1.85,2.99,15.13,7.06,25.48,22.55,25.12,40.33-.21,10.51-4.14,20.08-10.5,27.47v-29.23c0-1.64-1.33-2.97-2.96-2.97h-11.5c-1.64,0-2.96,1.33-2.96,2.97v41.52c-2.22.85-4.53,1.53-6.91,2.01v-49.78c0-1.64-1.33-2.96-2.96-2.96h-11.5c-1.64,0-2.96,1.33-2.96,2.96v49.76c-2.38-.48-4.69-1.16-6.91-2.03v-31.57c0-1.63-1.32-2.96-2.96-2.96h-11.5c-1.63,0-2.96,1.33-2.96,2.96v19.21c-5.77-6.72-9.51-15.22-10.28-24.51-1.54-18.82,8.81-35.27,24.26-42.83,1.08-.53,1.76-1.63,1.78-2.83.05-2.44-2.51-4.04-4.7-2.96C11.31,13.31-.19,30.59.04,50.63c.17,14.55,6.7,27.69,16.92,36.75,5.01,4.45,10.91,7.91,17.39,10.07,2.63.89,5.36,1.55,8.16,1.98,2.08.32,4.2.51,6.35.56.4.01.8.01,1.2.01,2.51,0,4.99-.19,7.4-.55,2.82-.42,5.55-1.07,8.2-1.94,6.47-2.13,12.37-5.54,17.38-9.96,10.17-8.93,16.7-21.94,16.99-36.54.41-20.41-11.48-38.22-28.87-46.34ZM39.22,7.35c1.74.23,3.35-1,3.58-2.74.23-1.75-1-3.35-2.74-3.58-1.75-.23-3.35.99-3.58,2.74-.23,1.74.99,3.35,2.74,3.58ZM41.29,26.56c0-4.81,3.9-8.71,8.71-8.71s8.71,3.9,8.71,8.71c0,.39-.04.78-.09,1.16l7.74,1.55c1.36-3.05,4.41-5.18,7.96-5.18,4.81,0,8.71,3.9,8.71,8.71s-3.9,8.71-8.71,8.71-8.71-3.9-8.71-8.71c0-.22.02-.44.03-.65l-7.92-1.58c-1.45,2.8-4.37,4.71-7.73,4.71-2.35,0-4.47-.93-6.04-2.44l-10.03,7.12c.29.87.46,1.8.46,2.77,0,4.81-3.9,8.71-8.71,8.71s-8.71-3.9-8.71-8.71,3.9-8.71,8.71-8.71c2.77,0,5.24,1.3,6.83,3.32l9.7-6.89c-.58-1.17-.92-2.48-.92-3.88ZM31.42,42.72c0-3.17-2.58-5.75-5.75-5.75s-5.75,2.58-5.75,5.75,2.58,5.75,5.75,5.75,5.75-2.58,5.75-5.75ZM68.58,32.8c0,3.17,2.58,5.75,5.75,5.75s5.75-2.58,5.75-5.75-2.58-5.75-5.75-5.75-5.75,2.58-5.75,5.75ZM44.25,26.56c0,3.17,2.58,5.75,5.75,5.75s5.75-2.58,5.75-5.75-2.58-5.75-5.75-5.75-5.75,2.58-5.75,5.75Z"/></svg>