<?xml version="1.0" encoding="UTF-8"?><svg id="Layer_1" xmlns="http://www.w3.org/2000/svg" width="100" height="100" viewBox="0 0 100 100"><path d="M92.76,10.24c-13.92-2.96-27.69-6.81-41.63-9.65-1.46-.3-2.79-.67-4.3-.58-4.27.26-7.94,3.13-9.21,7.19-.97,3.11-1.38,6.58-2.27,9.72-3.06.45-5.82,1.83-7.52,4.47-1.08,1.69-1.54,3.52-1.66,5.51v16.66L.89,68.86c-1.19,1.2-1.19,3.14,0,4.34l25.91,25.9c1.93,1.93,5.24.57,5.24-2.17v-12.98c12.52,0,20.56-2.25,28.7,15.54.25.55,1.07.37,1.07-.23,0-11.9-.21-21.5-3.16-28.42h22.06c5.66-.36,8.65-4.27,10.03-9.4,3.52-13.07,5.8-26.76,9.17-39.9.64-5.1-2.27-9.75-7.15-11.29ZM84.5,61.25c-.11,1.92-1.73,3.62-3.65,3.79h-25.93c-4.34-4.53-11.39-6.93-22.87-6.93v-12.98c0-.23-.03-.45-.08-.66v-18.11c.18-1.92,1.87-3.54,3.79-3.65h44.95c2.02.18,3.62,1.77,3.79,3.79v34.75ZM90.44,37.28c-.06.18-.05.42-.29.46-.05-.4.13-.77.14-1.17.13-2.91.16-6.63,0-9.52-.34-6.04-4.09-9.81-10.13-10.13h-38.95c.74-2.46,1.03-5.22,1.77-7.67.71-2.35,2.53-3.71,5.03-3.48,13.77,3.46,27.85,5.99,41.58,9.56,2.83.74,4.73,1.78,4.68,5.1-1.52,5.38-2.16,11.56-3.84,16.84Z"/><path d="M79.18,24.78h-41.77c-1.56.05-3.1,1.88-3.1,3.38v20.06l11.54-7c1.03-.53,1.99-.4,2.96.16,2.5,1.45,4.95,4.32,7.47,5.9,1.47.73,2.24,0,3.2-.99,3.04-3.11,5.69-7.04,8.75-10.14,1.49-1.51,2.9-2.16,4.76-.62l9.02,12v-20.19c0-.79-1.88-2.66-2.82-2.55ZM43.36,36.95c-2.25,0-4.07-1.82-4.07-4.07s1.82-4.07,4.07-4.07,4.07,1.82,4.07,4.07-1.82,4.07-4.07,4.07Z"/></svg>