<?xml version="1.0" encoding="UTF-8"?><svg id="Layer_1" xmlns="http://www.w3.org/2000/svg" width="100" height="100" viewBox="0 0 100 100"><path d="M39.12.35c3.06,1.04,5.73,4.76,7.9,6.93,6.76,6.76,14.47,13.21,20.57,20.57,3.76,4.53,1.36,10.73-4.63,11.17-3.14.23-6.34.12-9.52.05v25.32c0,1.85-1.57,3.42-3.42,3.42-4.06,0-8.16-.17-12.22,0-.05,0-.09,0-.14,0,.09.06.18.13.29.23,1.09.99,2.1,2.1,3.14,3.14,6.14,6.14,12.29,12.28,18.43,18.42.91.91,1.92,2.3,3.01,3.01.38.25.48.37.47.43,1.6-.52,4.31-4.39,5.38-5.46,6.04-6.04,12.08-12.08,18.13-18.12.42-.42,1.4-1.09,1.84-1.69-.47-.09-1.23.04-1.63.04h-10.81c-1.85,0-3.42-1.57-3.42-3.42v-21.8c0-4.41,6.83-4.4,6.83,0v18.24c3.91-.25,8.23-.65,11.62.45,5.77,1.87,5.07,8.15,1.67,11.72-7.2,7.57-14.81,14.8-22.2,22.19-2.61,2.61-5.37,5.88-9.56,4.45-3.06-1.04-5.73-4.76-7.9-6.93-6.76-6.76-14.47-13.21-20.57-20.57-3.76-4.53-1.36-10.73,4.63-11.17,3.15-.23,6.38-.12,9.57-.05v-25.32c0-1.85,1.57-3.42,3.42-3.42,4.05,0,8.13.16,12.17,0,.05,0,.09,0,.13,0-.09-.06-.18-.13-.29-.23-1.09-.99-2.1-2.1-3.14-3.14-6.14-6.14-12.29-12.28-18.43-18.42-.91-.91-1.92-2.3-3.01-3.01-.38-.25-.48-.37-.47-.43-1.6.52-4.31,4.39-5.38,5.46-6.04,6.04-12.08,12.08-18.13,18.12-.42.42-1.4,1.09-1.84,1.69.47.09,1.23-.04,1.63-.04h10.81c1.85,0,3.42,1.57,3.42,3.42v21.8c0,4.41-6.83,4.4-6.83,0v-18.24c-3.91.25-8.23.65-11.62-.45-5.77-1.87-5.07-8.15-1.67-11.72,7.2-7.57,14.81-14.8,22.2-22.19,2.61-2.61,5.37-5.88,9.56-4.45Z"/></svg>