<?xml version="1.0" encoding="UTF-8"?><svg id="Layer_1" xmlns="http://www.w3.org/2000/svg" width="100" height="100" viewBox="0 0 100 100"><path d="M99.82,30.5c-.84-4.08-4.46-7.16-8.79-7.16H31.51c-4.33,0-7.95,3.08-8.78,7.16-.08.35-.13.71-.16,1.07h3.71c.35-2.57,2.56-4.55,5.23-4.55h59.52c2.92,0,5.29,2.37,5.29,5.28v.74l-26.22,19.08-3.13,2.28-5.7,4.15-5.7-4.15-3.12-2.28-21.36-15.54c-.17,1.32-.92,2.45-1.98,3.12l20.21,14.7-22.24,16.18c-.41-.64-.7-1.37-.81-2.15h-3.7c.13,1.59.68,3.07,1.53,4.32.71,1.04,1.64,1.92,2.71,2.58,1.37.85,2.98,1.33,4.7,1.33h59.52c1.72,0,3.33-.48,4.7-1.33,1.07-.66,2-1.54,2.71-2.58.98-1.44,1.56-3.18,1.56-5.05v-35.4c0-.61-.06-1.22-.18-1.8ZM91.03,72.98H31.51c-.44,0-.86-.05-1.26-.15l22.2-16.15,8.82,6.42,8.83-6.42,22.19,16.15c-.4.1-.82.15-1.26.15ZM96.32,67.7c0,1.06-.32,2.05-.86,2.88l-22.24-16.18,23.1-16.81v30.11Z"/><path d="M26.71,59.58h-13.7c-2.45,0-4.43,1.98-4.43,4.43,0,1.22.5,2.33,1.3,3.13s1.9,1.29,3.13,1.29h13.7c2.44,0,4.42-1.98,4.42-4.42s-1.98-4.43-4.42-4.43ZM26.71,31.57h-13.7c-2.45,0-4.43,1.98-4.43,4.42,0,1.23.5,2.33,1.3,3.13s1.9,1.3,3.13,1.3h13.7c.88,0,1.71-.26,2.4-.72,1.06-.67,1.81-1.8,1.98-3.12.03-.19.04-.39.04-.59,0-2.44-1.98-4.42-4.42-4.42ZM26.71,45.57H4.43c-1.23,0-2.33.5-3.13,1.3s-1.3,1.91-1.3,3.13c0,2.44,1.98,4.43,4.43,4.43h22.28c1.22,0,2.33-.5,3.13-1.3s1.29-1.91,1.29-3.13c0-2.44-1.98-4.43-4.42-4.43Z"/></svg>