<?xml version="1.0" encoding="UTF-8"?><svg id="Layer_1" xmlns="http://www.w3.org/2000/svg" width="100" height="100" viewBox="0 0 100 100"><path d="M74.82.55c-2.1-1.2-4.77-.39-5.78,1.81h0c-.86,1.89-.18,4.17,1.63,5.19,8.32,4.7,14.73,12.06,18.27,21.05,3.54,8.99,3.86,18.75.97,27.85-.63,1.98.42,4.11,2.35,4.91h0c2.23.93,4.74-.3,5.46-2.61,3.4-10.84,3-22.44-1.21-33.13S84.69,6.17,74.82.55ZM3.49,25.62C-.72,36.31-1.12,47.92,2.28,58.76c.72,2.31,3.23,3.53,5.46,2.61h0c1.92-.8,2.97-2.92,2.35-4.91-2.88-9.11-2.56-18.87.97-27.85S21.01,12.25,29.33,7.56c1.81-1.02,2.49-3.3,1.63-5.19h0c-1-2.2-3.68-3.01-5.78-1.81C15.31,6.17,7.69,14.93,3.49,25.62ZM85.2,65.88c-2.66-1.98-4.2-4.98-4.22-8.38l-.12-15.18c-.38-12.55-7.83-23.43-19.46-28.12v-2.38c-.05-6.39-4.68-11.51-10.86-11.81-6.16-.29-11.59,4.34-11.98,10.64l-.04,3.58c-11.69,4.66-19.39,15.7-19.47,28.32l-.09,14.93c-.02,4.07-2.2,6.94-5.23,9.3-3.36,2.62-4.6,7.05-3.26,11.01,1.23,3.64,4.65,6.7,8.77,6.72l14.48.08c.32,4.95,2.89,9.5,6.57,12.23,4.26,3.16,9.51,4.02,14.4,2.53,6.62-2.02,11.03-7.9,11.55-14.77h13.49c3.53.01,6.73-1.65,8.55-4.4,3.16-4.78,1.86-10.64-3.08-14.3ZM50.07,90.84c-3.51.06-6.64-2.63-7.1-6.27h13.96c-.32,3.57-3.39,6.22-6.86,6.27ZM80.3,75.27H20.02c-.48,0-.7-.28-.76-.53-.08-.27.1-.69.38-.89,5.3-3.86,8.55-9.7,8.59-16.33l.1-15.22c.03-4.13,1.34-7.81,3.61-11.3,4.22-6.51,11.68-10.24,19.43-9.72,7.47.5,14.22,4.84,17.78,11.69,1.72,3.34,2.47,6.91,2.48,10.73v12.28c.02,7.61,2.7,13.4,8.77,17.96.35.39.48.79-.1,1.33Z"/></svg>