<?xml version="1.0" encoding="UTF-8"?><svg id="Layer_1" xmlns="http://www.w3.org/2000/svg" width="100" height="100" viewBox="0 0 100 100"><circle cx="42.94" cy="42.94" r="42.94" fill="#f1f1f1"/><circle cx="42.94" cy="42.94" r="37.37" fill="#3bb44a"/><path d="M37.06,63.5l-17.03-19.07c-1.42-1.59-1.28-4.04.31-5.46l5.23-4.67c1.59-1.42,4.04-1.28,5.46.31l4.82,5.39c1.65,1.84,4.57,1.69,6.02-.31l12.28-17.01c1.25-1.73,3.67-2.12,5.4-.87l5.69,4.11c1.73,1.25,2.12,3.67.87,5.4l-23.02,31.88c-1.45,2-4.37,2.15-6.02.31Z" fill="#fff"/><path d="M43.51,99.31c0-23.84.89-37.6,27.21-37.6v-11.86c0-2.5,3.03-3.75,4.79-1.98l23.67,23.67c1.09,1.1,1.09,2.87,0,3.97l-23.67,23.67c-1.76,1.77-4.79.52-4.79-1.98v-11.86c-11.44,0-18.79-2.05-26.23,14.2-.23.5-.98.34-.98-.21Z"/></svg>