<?xml version="1.0" encoding="UTF-8"?><svg id="Layer_1" xmlns="http://www.w3.org/2000/svg" width="100" height="100" viewBox="0 0 100 100"><path d="M75.27,74.01c-7.44-16.26-14.79-14.2-26.23-14.2v11.86c0,2.5-3.03,3.75-4.79,1.98l-23.67-23.67c-1.09-1.1-1.09-2.87,0-3.97l23.67-23.67c1.76-1.77,4.79-.52,4.79,1.98v11.86c26.32,0,27.21,13.76,27.21,37.6,0,.55-.75.71-.98.21ZM71.16,4.67c-2.11-.99-4.54.56-4.59,2.89h0c-.03,1.28.69,2.45,1.85,2.99,15.14,7.06,25.48,22.55,25.12,40.32-.51,25.12-22.21,44.84-47.7,42.43-20.78-1.96-37.45-18.78-39.16-39.58-1.55-18.81,8.81-35.27,24.25-42.83,1.08-.53,1.76-1.63,1.78-2.83h0c.05-2.45-2.51-4.04-4.71-2.96C11.31,13.31-.19,30.59.04,50.63c.32,26.73,22.09,48.72,48.82,49.35,27.68.65,50.61-21.32,51.17-48.98.41-20.41-11.48-38.22-28.87-46.34ZM50.42.03c-1.75-.23-3.35.99-3.58,2.74s.99,3.35,2.74,3.58,3.35-.99,3.58-2.74-.99-3.35-2.74-3.58ZM40.06,1.03c-1.75-.23-3.35.99-3.58,2.74s.99,3.35,2.74,3.58,3.35-.99,3.58-2.74-.99-3.35-2.74-3.58ZM60.78,1.03c-1.75-.23-3.35.99-3.58,2.74s.99,3.35,2.74,3.58,3.35-.99,3.58-2.74-.99-3.35-2.74-3.58Z"/></svg>