<?xml version="1.0" encoding="UTF-8"?><svg id="Layer_2" xmlns="http://www.w3.org/2000/svg" width="100" height="100" viewBox="0 0 100 100"><path d="M100,86.14c0,1.81-.86,3.35-2.09,4.01-.79.43-1.34,1.2-1.34,2.1v3.39c0,2.41-1.95,4.36-4.36,4.36H7.79c-2.41,0-4.36-1.95-4.36-4.36v-3.39c0-.9-.54-1.67-1.34-2.1-1.23-.66-2.09-2.21-2.09-4.01s.86-3.35,2.09-4.01c.79-.43,1.34-1.2,1.34-2.1v-3.39c0-2.4,1.95-4.36,4.36-4.36h23.53c3.36,0,6.66.8,9.64,2.36,2.7,1.41,5.78,2.21,9.04,2.21s6.34-.8,9.04-2.21c2.97-1.55,6.28-2.36,9.64-2.36h23.53c2.41,0,4.36,1.95,4.36,4.36v3.39c0,.9.54,1.67,1.34,2.1,1.23.66,2.09,2.21,2.09,4.01Z" fill="#404041"/><path d="M17.22,88.04c0,.57-.14,1.08-.43,1.52s-.71.79-1.25,1.03-1.19.37-1.92.37c-.61,0-1.13-.04-1.54-.13-.38-.08-.78-.21-1.19-.4-.07-.03-.11-.1-.11-.18v-1.79c0-.14.14-.23.27-.18.39.18.79.33,1.21.44.51.14.98.2,1.41.2.37,0,.64-.06.81-.19.17-.13.26-.29.26-.49,0-.13-.03-.24-.1-.33-.07-.09-.18-.19-.33-.29-.15-.1-.56-.29-1.23-.59-.6-.27-1.05-.54-1.35-.79-.3-.26-.52-.55-.67-.88-.14-.33-.22-.72-.22-1.18,0-.85.31-1.51.93-1.99.62-.47,1.47-.71,2.55-.71.9,0,1.81.2,2.75.59.1.04.14.15.1.25l-.62,1.56c-.04.1-.16.15-.26.1-.78-.34-1.47-.51-2.05-.51-.32,0-.56.06-.71.17-.15.11-.22.25-.22.42,0,.18.09.34.28.49.19.14.69.4,1.52.78.79.36,1.35.74,1.65,1.15.31.41.46.93.46,1.55Z" fill="#fff"/><path d="M23.28,90.84c-.07,0-.14-.04-.17-.11l-.42-.84h-.05c-.33.41-.67.69-1.01.84-.34.15-.79.23-1.34.23-.67,0-1.2-.2-1.59-.61-.39-.4-.58-.97-.58-1.7s.26-1.33.79-1.7c.53-.37,1.3-.58,2.3-.63l1.19-.04v-.1c0-.59-.29-.88-.87-.88-.48,0-1.09.15-1.81.45-.1.04-.21,0-.25-.1l-.56-1.28c-.04-.09,0-.21.09-.25.8-.37,1.8-.56,2.99-.56.92,0,1.62.23,2.13.68.5.45.75,1.09.75,1.9v4.49c0,.11-.09.19-.19.19h-1.4ZM21.33,89.23c.3,0,.55-.09.77-.28.21-.19.32-.43.32-.74v-.35c0-.11-.09-.2-.2-.19l-.37.02c-.81.03-1.22.33-1.22.89,0,.44.23.66.7.66Z" fill="#fff"/><path d="M30.71,85.55h-1.13c-.11,0-.19.09-.19.19v4.91c0,.11-.09.19-.19.19h-2.08c-.11,0-.19-.09-.19-.19v-4.91c0-.11-.09-.19-.19-.19h-.56c-.11,0-.19-.09-.19-.19v-.91c0-.07.04-.13.09-.16l.9-.55v-.12c0-.94.19-1.62.58-2.03.38-.41,1-.62,1.85-.62.33,0,.64.03.93.08.24.04.52.11.83.21.1.03.16.14.12.24l-.41,1.24c-.03.1-.13.15-.23.13-.24-.05-.48-.08-.72-.08-.19,0-.33.06-.41.17-.09.12-.13.3-.13.56v.19h1.33c.11,0,.19.09.19.19v1.46c0,.11-.09.19-.19.19Z" fill="#fff"/><path d="M35.32,90.97c-1.19,0-2.11-.32-2.77-.95-.66-.63-.99-1.53-.99-2.7s.3-2.13.91-2.78c.61-.64,1.48-.97,2.61-.97s1.91.28,2.49.84c.59.56.88,1.37.88,2.42v.9c0,.11-.09.19-.19.19h-4c-.12,0-.21.11-.19.22.05.29.19.53.41.72.28.23.65.34,1.12.34.43,0,.83-.04,1.19-.12.29-.06.59-.16.92-.3.13-.05.27.04.27.18v1.35c0,.07-.04.14-.11.17-.35.17-.72.29-1.09.36-.41.08-.9.11-1.47.11ZM35.18,85.25c-.29,0-.53.09-.73.27-.16.15-.26.36-.31.63-.02.12.07.23.19.23h1.69c.12,0,.21-.1.19-.22-.04-.24-.13-.45-.27-.61-.19-.21-.44-.31-.75-.31Z" fill="#fff"/><path d="M43.35,89.02c.27,0,.58-.05.94-.16.12-.04.25.05.25.18v1.4c0,.08-.05.15-.12.18-.29.12-.56.2-.83.26-.3.06-.65.09-1.06.09-.83,0-1.42-.2-1.79-.61s-.55-1.03-.55-1.87v-2.75c0-.11-.09-.19-.19-.19h-.48c-.11,0-.19-.09-.19-.19v-.71c0-.06.03-.12.08-.16l.97-.69s.05-.05.07-.08l.57-1.33c.03-.07.1-.12.18-.12h1.29c.11,0,.19.09.19.19v1.05c0,.11.09.19.19.19h1.37c.11,0,.19.09.19.19v1.46c0,.11-.09.19-.19.19h-1.37c-.11,0-.19.09-.19.19v2.59c0,.46.22.69.67.69Z" fill="#fff"/><path d="M45.21,83.7h2.17c.09,0,.16.06.18.14l1.17,3.96c.06.21.1.47.12.78h.05c.03-.29.08-.54.15-.76l1.2-3.97c.02-.08.1-.14.18-.14h2.09c.13,0,.23.13.18.26l-2.73,7.33c-.36.97-.81,1.65-1.33,2.05-.53.4-1.22.6-2.06.6-.28,0-.56-.03-.85-.08-.09-.02-.16-.1-.16-.19v-1.54c0-.12.1-.21.22-.19.17.02.35.04.54.04.22,0,.41-.04.57-.13.16-.08.31-.2.43-.36.11-.14.23-.37.36-.68.02-.05.02-.1,0-.15l-2.68-6.7c-.05-.13.04-.26.18-.26Z" fill="#fff"/><path d="M58.37,90.84h-2.1c-.11,0-.19-.09-.19-.19v-6.79c0-.11-.09-.19-.19-.19h-1.86c-.11,0-.19-.09-.19-.19v-1.65c0-.11.09-.19.19-.19h6.6c.11,0,.19.09.19.19v1.65c0,.11-.09.19-.19.19h-1.86c-.11,0-.19.09-.19.19v6.79c0,.11-.09.19-.19.19Z" fill="#ffe100"/><path d="M65.42,90.97c-1.19,0-2.11-.32-2.77-.95-.66-.63-.99-1.53-.99-2.7s.3-2.13.91-2.78c.61-.64,1.48-.97,2.61-.97s1.91.28,2.49.84c.59.56.88,1.37.88,2.42v.9c0,.11-.09.19-.19.19h-4c-.12,0-.21.11-.19.22.05.29.19.53.41.72.28.23.65.34,1.12.34.43,0,.83-.04,1.19-.12.29-.06.59-.16.92-.3.13-.05.27.04.27.18v1.35c0,.07-.04.14-.11.17-.35.17-.72.29-1.09.36-.41.08-.9.11-1.47.11ZM65.28,85.25c-.29,0-.53.09-.73.27-.16.15-.26.36-.31.63-.02.12.07.23.19.23h1.69c.12,0,.21-.1.19-.22-.04-.24-.13-.45-.27-.61-.19-.21-.44-.31-.75-.31Z" fill="#ffe100"/><path d="M74.73,90.84c-.07,0-.14-.04-.17-.11l-.42-.84h-.05c-.33.41-.67.69-1.01.84-.34.15-.79.23-1.34.23-.67,0-1.2-.2-1.59-.61-.39-.4-.58-.97-.58-1.7s.26-1.33.79-1.7c.53-.37,1.3-.58,2.3-.63l1.19-.04v-.1c0-.59-.29-.88-.87-.88-.48,0-1.09.15-1.81.45-.1.04-.21,0-.25-.1l-.56-1.28c-.04-.09,0-.21.09-.25.8-.37,1.8-.56,2.99-.56.92,0,1.62.23,2.13.68.5.45.75,1.09.75,1.9v4.49c0,.11-.09.19-.19.19h-1.4ZM72.78,89.23c.3,0,.55-.09.77-.28.21-.19.32-.43.32-.74v-.35c0-.11-.09-.2-.2-.19l-.37.02c-.81.03-1.22.33-1.22.89,0,.44.23.66.7.66Z" fill="#ffe100"/><path d="M86.96,90.84c-.11,0-.19-.09-.19-.19v-3.69c0-.48-.07-.85-.2-1.09-.13-.24-.34-.36-.63-.36-.38,0-.66.16-.83.49-.18.32-.26.83-.26,1.52v3.14c0,.11-.09.19-.19.19h-2.09c-.11,0-.19-.09-.19-.19v-3.69c0-.48-.06-.85-.19-1.09-.13-.24-.33-.36-.61-.36-.39,0-.67.17-.84.52s-.26.91-.26,1.69v2.93c0,.11-.09.19-.19.19h-2.08c-.11,0-.19-.09-.19-.19v-6.76c0-.11.09-.19.19-.19h1.53c.08,0,.15.05.18.13l.26.75h.14c.19-.33.46-.58.82-.75s.77-.26,1.23-.26c.98,0,1.69.29,2.11.86.04.05.09.08.16.08h0c.06,0,.12-.03.15-.08.2-.26.46-.46.78-.61.36-.17.76-.25,1.19-.25.84,0,1.47.22,1.87.65.4.43.61,1.09.61,1.97v4.45c0,.11-.09.19-.19.19h-2.08Z" fill="#ffe100"/><path d="M97.41,50.17c0,1.44.04,2.89,0,4.33-.1,3.08-1.68,5.89-4.28,7.55-2.02,1.28-4.24,1.38-6.54,1.38h-16.12s-.08,0-.11,0c-5.18,5.48-12.43,8.81-20.3,8.86-2.74.02-2.74-4.23,0-4.25,9.64-.06,18.56-6,22.08-15.04.42-1.07,1.41-1.82,2.62-1.48,1.03.28,1.9,1.54,1.49,2.62-.7,1.79-1.56,3.47-2.57,5.05h12.15c1.59,0,3.31.21,4.77-.56,1.64-.87,2.54-2.53,2.58-4.36.02-1.47,0-2.95,0-4.42,0-1.27.16-2.7-.23-3.93-.65-2.02-2.51-3.31-4.6-3.35-1.22-.03-2.44,0-3.65,0s-2.01-.98-2.13-2.13c-1.33-12.78-10.44-23.73-22.63-27.68-.9-.29-1.56-1.08-1.56-2.05v-3.33c0-.88.26-2.18-.5-2.8-.45-.37-.99-.3-1.54-.3h-10.55c-1.14,0-3.58-.47-3.98.99-.22.8-.05,1.84-.05,2.66v2.77c0,.17-.02.33-.06.48v1.36c-1.46.29-2.89.72-4.25,1.28v-.03c-.54.23-1.07.48-1.6.74-7.04,3.46-12.67,9.37-15.79,16.49-1.01,2.31-1.76,4.76-2.2,7.29h4.89c1.56-7.1,6.03-13.46,12.09-17.42,1.05-.69,2.47-.34,3.05.77h0c.52.99.19,2.2-.76,2.8-4.91,3.13-8.56,8.22-10.01,13.85-.1.39-.19.78-.27,1.18-.21,1.02-.35,2.05-.42,3.07h-11.01c-1.42,0-2.96-.17-4.37.04-2.38.36-4.06,2.42-4.12,4.79-.03,1.27,0,2.55,0,3.83s-.14,2.61.04,3.85c.31,2.07,2,3.76,4.07,4.07,1.33.2,2.78.04,4.12.04h15.81c1.07,0,2.1-.37,2.93-1.05,1.38-1.14,2.76-2.28,4.14-3.42,1.06-.88,2.29-.62,3.01.1v-.1c4.66,4.02,11.51,4.41,16.63,1.04,4.01-2.64,6.28-7.32,6.09-12.08-.2-4.76-3-9.12-7.15-11.4-4.25-2.34-9.54-2.19-13.68.31-4.12,2.49-6.57,6.97-6.62,11.75-.03,2.74-4.28,2.74-4.25,0,.07-7.14,4.32-13.72,10.92-16.53,5.79-2.46,12.67-1.73,17.72,2.06,3.23,2.42,5.59,5.87,6.67,9.7h5.91c-2.23-10.85-12.06-18.87-23.24-18.94-.19,0-.38-.02-.54-.06-2.18-.54-2-4.21.54-4.19.26,0,.53,0,.79.02,6.62.22,12.96,2.74,17.92,7.17,5.24,4.69,8.35,11.19,9.11,18.13.13,1.15-1.07,2.13-2.13,2.13h-7.72c.02.77-.01,1.54-.1,2.32-.7,6.21-4.52,11.88-10.28,14.49-5.98,2.71-12.77,1.99-18.06-1.7-1.52,1.26-3.04,2.51-4.56,3.77.32.26.64.52.97.76.93.68,1.39,1.83.76,2.91-.54.92-1.98,1.44-2.91.76-1.16-.85-2.26-1.78-3.29-2.77-.1-.07-.19-.14-.28-.23-.07-.07-.13-.15-.19-.23-.15-.15-.29-.3-.44-.46h-8.5c-2.99,0-5.98,0-8.97,0-5.37-.02-9.49-4.02-9.51-9.42-.01-3.53-.61-7.82,1.14-11.03,1.47-2.69,4.27-4.39,7.29-4.65.82-.07,1.64-.07,2.46-.06,1-6.28,3.49-12.13,7.45-17.18,2.62-3.34,5.86-6.2,9.47-8.46.03-.02.06-.04.1-.06,1.9-1.18,3.9-2.2,5.97-3.03.29-.12.58-.23.87-.34-.1-2.65-.24-5.63,1.68-7.55C41.05-.27,43.67.02,46.15.02h8.72c.7,0,1.4-.02,2.1,0,2.1.08,4.03,1.13,5.01,3.04.9,1.74.76,4.07.67,6.15,6.39,2.39,12.2,6.53,16.42,11.9,3.95,5.04,6.44,10.89,7.44,17.16,1.28-.02,2.58,0,3.82.25,3.25.69,5.95,3.35,6.78,6.55.43,1.65.3,3.42.3,5.1Z"/><path d="M58.1,50.05c-2.3,3.27-6.69,4.89-10.56,3.8-3.89-1.1-6.61-4.26-7.25-8.2-.04-.15-.06-.32-.07-.49-.02-.14-.02-.27-.02-.4-.1-4.48,2.69-8.77,7.15-9.96,4.01-1.07,8.35.36,10.78,3.78,2.43,3.42,2.36,8.07-.04,11.48Z"/><path d="M56.5,40.78c-.21,0-.41-.01-.62-.01-5.24,0-9.87,2.63-12.62,6.66-.44-.94-.68-1.99-.68-3.1,0-4.09,3.32-7.41,7.41-7.41,2.81,0,5.26,1.56,6.51,3.87Z" fill="#f3d20f"/><path d="M57.4,44.32c0,4.1-3.32,7.41-7.41,7.41-2.99,0-5.56-1.77-6.73-4.31,2.76-4.02,7.38-6.66,12.62-6.66.21,0,.42,0,.62.01.58,1.05.9,2.26.9,3.54Z" fill="#ffe100"/><circle cx="42.82" cy="19.49" r="2.28"/><circle cx="42.02" cy="69.14" r="2.28"/></svg>