<?xml version="1.0" encoding="UTF-8"?><svg id="Layer_1" xmlns="http://www.w3.org/2000/svg" width="100" height="100" viewBox="0 0 100 100"><path d="M93.44,81.48l-11.63-14.78c-.22-.27-.45-.54-.69-.78,4.71-6.79,7.47-15.01,7.47-23.88C88.59,18.85,69.74,0,46.56,0S4.54,18.85,4.54,42.03s18.85,42.02,42.02,42.02c5.6,0,10.95-1.1,15.84-3.1.15.22.3.43.46.64l11.63,14.78c3.24,4.12,9.2,4.83,13.31,1.59l4.05-3.18c4.11-3.24,4.83-9.2,1.59-13.31ZM18.83,42.03c0-15.3,12.44-27.74,27.73-27.74s27.74,12.44,27.74,27.74-12.45,27.73-27.74,27.73-27.73-12.44-27.73-27.73Z"/></svg>