<?xml version="1.0" encoding="UTF-8"?><svg id="Layer_1" xmlns="http://www.w3.org/2000/svg" width="100" height="100" viewBox="0 0 100 100"><path d="M83.46,20.41c-1.01-1.01-2.39-1.58-3.82-1.58h-5.66c-1.62,0-2.94-1.32-2.94-2.95v-5.64c0-1.43-.57-2.8-1.58-3.82l-5.01-5.01c-.9-.9-2.13-1.41-3.41-1.41H21.07c-6.04,0-10.94,4.9-10.94,10.95v78.1c0,6.05,4.9,10.95,10.95,10.95h57.86c6.04,0,10.94-4.9,10.94-10.95V28.83c0-1.28-.51-2.51-1.41-3.41l-5.01-5.01ZM81.88,89.05c0,1.63-1.32,2.95-2.94,2.95H21.07c-1.62,0-2.94-1.32-2.94-2.95V10.95c0-1.63,1.32-2.95,2.94-2.95h41.97v7.88c0,6.05,4.9,10.95,10.94,10.95h7.9v62.22ZM54.02,37.64h-20.54c-2.71,0-4.9-2.19-4.9-4.9h0c0-2.71,2.19-4.9,4.9-4.9h20.54c2.71,0,4.9,2.19,4.9,4.9h0c0,2.71-2.19,4.9-4.9,4.9ZM66.52,57.85h-33.05c-2.71,0-4.9-2.19-4.9-4.9h0c0-2.71,2.19-4.9,4.9-4.9h33.05c2.71,0,4.9,2.19,4.9,4.9h0c0,2.71-2.19,4.9-4.9,4.9ZM66.52,78.05h-33.05c-2.71,0-4.9-2.19-4.9-4.9h0c0-2.71,2.19-4.9,4.9-4.9h33.05c2.71,0,4.9,2.19,4.9,4.9h0c0,2.71-2.19,4.9-4.9,4.9Z"/></svg>