<?xml version="1.0" encoding="UTF-8"?><svg id="Layer_1" xmlns="http://www.w3.org/2000/svg" width="100" height="100" viewBox="0 0 100 100"><path d="M89.03,42.21s-.02-.05-.02-.08c-3.15-15.64-15.49-27.99-31.13-31.14-.03,0-.05-.01-.08-.01-2.53-.51-5.13-.78-7.8-.78s-5.27.27-7.8.78c-.02,0-.05.01-.07.01h-.02c-1.24.26-2.24,1.18-2.6,2.4-.68,2.24-1.7,5.66-1.76,5.92-1.08,4.68-1.89,10.1-2.41,16.03-6.23.54-11.9,1.41-16.74,2.58.18-.47.37-.94.58-1.4.69-1.58-.13-3.41-1.73-4.03h0c-1.52-.59-3.26.1-3.91,1.59-1.12,2.56-1.98,5.25-2.54,8.05,0,.03-.01.05-.02.08-.5,2.52-.77,5.12-.77,7.79s.27,5.27.77,7.79c.01.03.02.05.02.08,3.1,15.38,15.08,27.55,30.35,30.95.15.06.3.09.46.12,2.65.56,5.39.86,8.2.86s5.55-.3,8.2-.86c.16-.03.31-.06.46-.12,15.26-3.4,27.25-15.57,30.35-30.95,0-.03.01-.05.02-.08.5-2.52.77-5.12.77-7.79s-.27-5.27-.77-7.79ZM16.32,50c0-1.79.18-3.53.45-5.24,4.89-1.46,11.17-2.58,18.16-3.24-.14,2.81-.24,5.65-.24,8.48s.1,5.67.24,8.48c-6.99-.65-13.27-1.78-18.16-3.24-.27-1.71-.45-3.45-.45-5.24ZM18.6,62.08c4.84,1.17,10.51,2.04,16.74,2.58.54,6.24,1.41,11.9,2.58,16.74-8.86-3.42-15.9-10.46-19.32-19.32ZM81.4,37.92c-4.84-1.17-10.51-2.04-16.74-2.58-.54-6.24-1.41-11.9-2.58-16.74,8.86,3.42,15.9,10.46,19.32,19.32ZM44.75,16.77c1.72-.27,3.46-.45,5.25-.45s3.53.18,5.25.45c1.45,4.88,2.57,11.16,3.23,18.16-5.62-.28-11.35-.28-16.96,0,.66-6.99,1.78-13.27,3.23-18.16ZM55.25,83.23c-1.72.27-3.46.45-5.25.45s-3.53-.18-5.25-.45c-1.45-4.88-2.57-11.16-3.23-18.16,2.81.14,5.64.24,8.48.24s5.67-.1,8.48-.24c-.66,6.99-1.78,13.27-3.23,18.16ZM58.91,58.91c-5.89.33-11.92.33-17.82,0-.17-2.95-.27-5.93-.27-8.91s.1-5.96.27-8.91c5.89-.33,11.92-.33,17.82,0,.17,2.95.27,5.93.27,8.91s-.1,5.96-.27,8.91ZM62.08,81.4c1.17-4.84,2.04-10.51,2.58-16.74,6.23-.54,11.9-1.41,16.74-2.58-3.42,8.86-10.46,15.9-19.32,19.32ZM83.23,55.24c-4.89,1.46-11.17,2.58-18.16,3.24.14-2.81.24-5.65.24-8.48s-.1-5.67-.24-8.48c6.99.65,13.27,1.78,18.16,3.24.27,1.71.45,3.45.45,5.24s-.18,3.53-.45,5.24ZM99.96,51.95c-.98,25.91-22.1,47.03-48.01,48.01C23.45,101.05,0,78.26,0,50c0-1.81.1-3.59.28-5.35.2-1.83,1.93-3.09,3.73-2.78l.11.02c1.67.29,2.79,1.83,2.61,3.51-.16,1.51-.24,3.05-.24,4.6,0,24.59,20.4,44.42,45.21,43.48,22.55-.86,40.92-19.23,41.78-41.78.94-24.81-18.89-45.21-43.48-45.21-10.68,0-20.45,3.85-28.03,10.23h5.73c2.12,0,3.85,1.72,3.85,3.84v.93c0,2.12-1.73,3.85-3.85,3.85h-15.02c-2.12,0-3.84-1.73-3.84-3.85V6.47c0-2.12,1.72-3.85,3.84-3.85h.93c2.12,0,3.84,1.72,3.84,3.85v5.59C26.2,4.54,37.57,0,50,0c28.26,0,51.05,23.45,49.96,51.95Z"/></svg>