<?xml version="1.0" encoding="UTF-8"?><svg id="Layer_1" xmlns="http://www.w3.org/2000/svg" width="100" height="100" viewBox="0 0 100 100"><path d="M55.51,52.49c-7.44-16.26-14.79-14.2-26.23-14.2v11.86c0,2.5-3.03,3.75-4.79,1.98L.82,28.46c-1.09-1.1-1.09-2.87,0-3.97L24.49.83c1.76-1.77,4.79-.52,4.79,1.98v11.86c26.32,0,27.21,13.76,27.21,37.6,0,.55-.75.71-.98.21ZM44.49,47.51c7.44,16.26,14.79,14.2,26.23,14.2v-11.86c0-2.5,3.03-3.75,4.79-1.98l23.67,23.67c1.09,1.1,1.09,2.87,0,3.97l-23.67,23.67c-1.76,1.77-4.79.52-4.79-1.98v-11.86c-26.32,0-27.21-13.76-27.21-37.6,0-.55.75-.71.98-.21Z"/></svg>