<?xml version="1.0" encoding="UTF-8"?><svg id="Layer_1" xmlns="http://www.w3.org/2000/svg" width="100" height="100" viewBox="0 0 100 100"><path d="M100,50c0,27.61-22.39,50-50,50S0,77.61,0,50,22.39,0,50,0s50,22.39,50,50" fill="#d1d3d4"/><path d="M93.5,50c0,4.25-.62,8.38-1.75,12.25-4.92,16.83-19.75,29.42-37.71,31.08-1.33.13-2.67.17-4.04.17-7.37,0-14.38-1.83-20.46-5.08-10.21-5.46-17.96-14.83-21.29-26.17-1.13-3.87-1.75-8-1.75-12.25s.63-8.38,1.75-12.25c3.33-11.33,11.08-20.71,21.29-26.17,6.08-3.25,13.08-5.08,20.46-5.08,1.38,0,2.71.04,4.04.17,17.96,1.67,32.79,14.25,37.71,31.08,1.13,3.87,1.75,8,1.75,12.25Z" fill="#fff"/><path d="M93.5,50c0,4.25-.62,8.38-1.75,12.25h-37.71v31.08c-1.33.13-2.67.17-4.04.17-7.37,0-14.38-1.83-20.46-5.08v-26.17H8.25c-1.13-3.87-1.75-8-1.75-12.25s.63-8.38,1.75-12.25h21.29V11.58c6.08-3.25,13.08-5.08,20.46-5.08,1.38,0,2.71.04,4.04.17v31.08h37.71c1.13,3.87,1.75,8,1.75,12.25Z" fill="#203468"/></svg>