<?xml version="1.0" encoding="UTF-8"?><svg id="Layer_1" xmlns="http://www.w3.org/2000/svg" width="100" height="100" viewBox="0 0 100 100"><path d="M100,50c0,27.61-22.39,50-50,50S0,77.61,0,50,22.39,0,50,0s50,22.39,50,50" fill="#d1d3d4"/><path d="M75.63,14.88h-21.96v10.29h-19.58v-15.67c4.92-1.92,10.29-3,15.92-3,9.58,0,18.46,3.08,25.63,8.38Z" fill="#145fad"/><path d="M90.87,35.08h-37.21v-10.04h31.96s.08.08.08.12c2.13,3.04,3.87,6.38,5.17,9.92Z" fill="#145fad"/><path d="M93.5,50c0,1.58-.08,3.13-.25,4.67h-59.17v-19.58h19.58v9.83h39.54c.21,1.67.29,3.37.29,5.08Z" fill="#145fad"/><path d="M93.21,44.92h-39.54v-9.71h37.25c1.13,3.08,1.92,6.33,2.29,9.71Z" fill="#fff"/><path d="M85.71,25.17h-32.04v-10.29h21.96c3.87,2.79,7.25,6.25,10,10.17.04.04.08.08.08.12Z" fill="#fff"/><path d="M90.92,64.83c-1.29,3.5-2.96,6.75-5,9.75H14.08c-2.04-3-3.71-6.25-5-9.75h81.83Z" fill="#145fad"/><path d="M76.21,84.71c-7.29,5.54-16.37,8.79-26.21,8.79s-18.92-3.25-26.21-8.79h52.42Z" fill="#145fad"/><path d="M85.62,74.96c-2.58,3.75-5.79,7.04-9.42,9.75H23.79c-3.62-2.71-6.83-6-9.42-9.75h71.25Z" fill="#fff"/><path d="M24.12,15.04v10.12h-9.83c2.71-3.92,6.04-7.33,9.83-10.12Z" fill="#145fad"/><path d="M24.12,35.08v19.58H6.75c-.17-1.54-.25-3.08-.25-4.67,0-5.17.92-10.12,2.54-14.71.04-.08.04-.12.08-.21h15Z" fill="#145fad"/><path d="M93.25,54.67c-.38,3.54-1.17,6.92-2.33,10.17H9.08c-1.13-3.12-1.92-6.42-2.29-9.83h17.33v-19.71h-15.08c.04-.08.04-.12.08-.21,1.29-3.54,3.04-6.88,5.17-9.92h9.83v-10.12c3.04-2.25,6.38-4.12,9.96-5.54v15.67h19.58v10.12h-19.58v19.38h59.17Z" fill="#fff"/><path d="M90.92,35.21s-.04-.08-.04-.13" fill="none"/><path d="M6.79,55c0-.13-.04-.25-.04-.33" fill="none"/><path d="M14.38,74.96c-.08-.12-.17-.25-.29-.38" fill="none"/><path d="M85.92,74.58c-.12.13-.21.25-.29.38" fill="none"/></svg>