<?xml version="1.0" encoding="UTF-8"?><svg id="Layer_1" xmlns="http://www.w3.org/2000/svg" width="100" height="100" viewBox="0 0 100 100"><path d="M100,50c0,27.61-22.39,50-50,50S0,77.61,0,50,22.39,0,50,0s50,22.39,50,50" fill="#d1d3d4"/><path d="M32.17,10.33v79.33c-15.12-6.79-25.67-22-25.67-39.67S17.04,17.12,32.17,10.33Z" fill="#019147"/><path d="M67.83,10.33v79.33c-5.42,2.46-11.5,3.83-17.83,3.83s-12.42-1.38-17.83-3.83V10.33c5.42-2.46,11.5-3.83,17.83-3.83s12.42,1.38,17.83,3.83Z" fill="#fff"/><path d="M93.5,50c0,17.67-10.54,32.88-25.67,39.67V10.33c15.12,6.79,25.67,22,25.67,39.67Z" fill="#cd2a37"/></svg>