<?xml version="1.0" encoding="UTF-8"?><svg id="Layer_1" xmlns="http://www.w3.org/2000/svg" width="100" height="100" viewBox="0 0 100 100"><path d="M100,50c0,27.61-22.39,50-50,50S0,77.61,0,50,22.39,0,50,0s50,22.39,50,50" fill="#d1d3d4"/><path d="M93.5,50c0,3.25-.38,6.42-1.04,9.46-4.21,19.04-20.88,33.38-41.04,34-.46.04-.96.04-1.42.04-5.87,0-11.46-1.17-16.58-3.29-12.96-5.33-22.79-16.75-25.88-30.75-.67-3.04-1.04-6.21-1.04-9.46,0-2.92.29-5.75.83-8.5,2.88-14.42,12.83-26.25,26.08-31.71,5.12-2.13,10.71-3.29,16.58-3.29.46,0,.96,0,1.42.04,20.5.62,37.37,15.42,41.25,34.96.54,2.75.83,5.58.83,8.5Z" fill="#005392"/><path d="M93.5,50c0,3.25-.38,6.42-1.04,9.46h-41.04v34c-.46.04-.96.04-1.42.04-5.87,0-11.46-1.17-16.58-3.29v-30.75H7.54c-.67-3.04-1.04-6.21-1.04-9.46,0-2.92.29-5.75.83-8.5h26.08V9.79c5.12-2.13,10.71-3.29,16.58-3.29.46,0,.96,0,1.42.04v34.96h41.25c.54,2.75.83,5.58.83,8.5Z" fill="#fdcb08"/></svg>